<svg width="40" height="40" viewBox="0 0 31 30" xmlns="http://www.w3.org/2000/svg">
<path d="M30.2024 20.1171L30.2044 17.7477C30.2044 17.7237 30.202 17.7002 30.2008 17.6764L30.1996 15.7859C30.1996 12.2725 27.3412 9.41408 23.8277 9.41408C23.8263 9.41408 23.8253 9.41428 23.8239 9.41428H19.4785L21.0027 6.38559C21.3075 5.77751 21.4685 5.09484 21.4685 4.41129C21.4685 1.9789 19.4895 0 17.0573 0C15.3755 0 13.8631 0.934703 13.1102 2.43964L9.54042 9.57877C9.33838 9.47437 9.10959 9.41428 8.86648 9.41428H2.26621C1.45414 9.41428 0.795776 10.0726 0.795776 10.8847V28.5297C0.795776 29.3417 1.45414 30.0001 2.26621 30.0001H8.86648C9.67854 30.0001 10.3369 29.3417 10.3369 28.5297V28.3217C11.9877 29.4088 13.9339 30.0001 15.9854 30.0001H23.8277C27.3412 30.0001 30.1996 27.1417 30.1996 23.6294L30.2 23.1269C30.2017 23.0977 30.2044 23.0687 30.2044 23.0392L30.2024 20.1171ZM7.39605 27.0592H3.73664V12.3551H7.39605V27.0592ZM23.8277 27.0592H15.9854C13.7769 27.0592 11.7395 26.0994 10.3369 24.4135V14.5614L15.7403 3.75528C15.9917 3.25308 16.4962 2.94096 17.0573 2.94096C17.8681 2.94096 18.5277 3.60059 18.5277 4.41139C18.5277 4.64293 18.4758 4.86379 18.3747 5.06573L15.7789 10.2237C15.5495 10.6795 15.5727 11.2217 15.8405 11.6561C16.1081 12.0906 16.582 12.3551 17.0924 12.3551H23.8278C23.8287 12.3551 23.8296 12.355 23.8303 12.355C25.7209 12.3564 27.2588 13.895 27.2588 15.7869L27.2616 20.1169L27.2588 23.6282C27.2587 25.5201 25.7196 27.0592 23.8277 27.0592Z" fill="black"/>
</svg>
