<svg width="56" height="56" viewBox="0 0 56 56" fill="none" xmlns="http://www.w3.org/2000/svg">
<path d="M0.999999 28C0.999999 21.6377 3.20603 15.4723 7.24221 10.5542C11.2784 5.63608 16.895 2.26962 23.135 1.02841C29.375 -0.212813 35.8524 0.748015 41.4634 3.74717C47.0744 6.74632 51.472 11.5982 53.9067 17.4762C56.3414 23.3542 56.6627 29.8945 54.8159 35.9828C52.969 42.0711 49.0682 47.3307 43.7782 50.8654C38.4881 54.4001 32.1362 55.9912 25.8045 55.3676C19.4729 54.744 13.5534 51.9442 9.05456 47.4454L28.5 28L0.999999 28Z" fill="black"/>
<ellipse cx="28.5" cy="28.5" rx="21.5" ry="22" transform="rotate(-180 28.5 28.5)" fill="white"/>
</svg>
